<svg width="499" height="459" viewBox="0 0 499 459" fill="none" xmlns="http://www.w3.org/2000/svg">
<path d="M396 140H100V332H396V140Z" stroke="#F459A4" stroke-width="8"/>
<path d="M425 346H72V366H425V346Z" fill="#00CEC9"/>
<path d="M412.75 335.5C414.269 335.5 415.5 334.269 415.5 332.75C415.5 331.231 414.269 330 412.75 330C411.231 330 410 331.231 410 332.75C410 334.269 411.231 335.5 412.75 335.5Z" fill="#00CEC9"/>
<path d="M412.75 320.5C414.269 320.5 415.5 319.269 415.5 317.75C415.5 316.231 414.269 315 412.75 315C411.231 315 410 316.231 410 317.75C410 319.269 411.231 320.5 412.75 320.5Z" fill="#00CEC9"/>
<path d="M412.75 305.5C414.269 305.5 415.5 304.269 415.5 302.75C415.5 301.231 414.269 300 412.75 300C411.231 300 410 301.231 410 302.75C410 304.269 411.231 305.5 412.75 305.5Z" fill="#00CEC9"/>
<path d="M412.75 155.5C414.269 155.5 415.5 154.269 415.5 152.75C415.5 151.231 414.269 150 412.75 150C411.231 150 410 151.231 410 152.75C410 154.269 411.231 155.5 412.75 155.5Z" fill="#00CEC9"/>
<path d="M412.75 140.5C414.269 140.5 415.5 139.269 415.5 137.75C415.5 136.231 414.269 135 412.75 135C411.231 135 410 136.231 410 137.75C410 139.269 411.231 140.5 412.75 140.5Z" fill="#00CEC9"/>
<path d="M412.75 125.5C414.269 125.5 415.5 124.269 415.5 122.75C415.5 121.231 414.269 120 412.75 120C411.231 120 410 121.231 410 122.75C410 124.269 411.231 125.5 412.75 125.5Z" fill="#00CEC9"/>
<path d="M397.25 125.5C398.769 125.5 400 124.269 400 122.75C400 121.231 398.769 120 397.25 120C395.731 120 394.5 121.231 394.5 122.75C394.5 124.269 395.731 125.5 397.25 125.5Z" fill="#00CEC9"/>
<path d="M381.75 125.5C383.269 125.5 384.5 124.269 384.5 122.75C384.5 121.231 383.269 120 381.75 120C380.231 120 379 121.231 379 122.75C379 124.269 380.231 125.5 381.75 125.5Z" fill="#00CEC9"/>
<path d="M365.75 125.5C367.269 125.5 368.5 124.269 368.5 122.75C368.5 121.231 367.269 120 365.75 120C364.231 120 363 121.231 363 122.75C363 124.269 364.231 125.5 365.75 125.5Z" fill="#00CEC9"/>
<path d="M349.75 125.5C351.269 125.5 352.5 124.269 352.5 122.75C352.5 121.231 351.269 120 349.75 120C348.231 120 347 121.231 347 122.75C347 124.269 348.231 125.5 349.75 125.5Z" fill="#00CEC9"/>
<path d="M334.25 125.5C335.769 125.5 337 124.269 337 122.75C337 121.231 335.769 120 334.25 120C332.731 120 331.5 121.231 331.5 122.75C331.5 124.269 332.731 125.5 334.25 125.5Z" fill="#00CEC9"/>
<path d="M318.75 125.5C320.269 125.5 321.5 124.269 321.5 122.75C321.5 121.231 320.269 120 318.75 120C317.231 120 316 121.231 316 122.75C316 124.269 317.231 125.5 318.75 125.5Z" fill="#00CEC9"/>
<path d="M302.75 125.5C304.269 125.5 305.5 124.269 305.5 122.75C305.5 121.231 304.269 120 302.75 120C301.231 120 300 121.231 300 122.75C300 124.269 301.231 125.5 302.75 125.5Z" fill="#00CEC9"/>
<path d="M286.75 125.5C288.269 125.5 289.5 124.269 289.5 122.75C289.5 121.231 288.269 120 286.75 120C285.231 120 284 121.231 284 122.75C284 124.269 285.231 125.5 286.75 125.5Z" fill="#00CEC9"/>
<path d="M270.75 125.5C272.269 125.5 273.5 124.269 273.5 122.75C273.5 121.231 272.269 120 270.75 120C269.231 120 268 121.231 268 122.75C268 124.269 269.231 125.5 270.75 125.5Z" fill="#00CEC9"/>
<path d="M254.75 125.5C256.269 125.5 257.5 124.269 257.5 122.75C257.5 121.231 256.269 120 254.75 120C253.231 120 252 121.231 252 122.75C252 124.269 253.231 125.5 254.75 125.5Z" fill="#00CEC9"/>
<path d="M238.75 125.5C240.269 125.5 241.5 124.269 241.5 122.75C241.5 121.231 240.269 120 238.75 120C237.231 120 236 121.231 236 122.75C236 124.269 237.231 125.5 238.75 125.5Z" fill="#00CEC9"/>
<path d="M223.25 125.5C224.769 125.5 226 124.269 226 122.75C226 121.231 224.769 120 223.25 120C221.731 120 220.5 121.231 220.5 122.75C220.5 124.269 221.731 125.5 223.25 125.5Z" fill="#00CEC9"/>
<path d="M207.75 125.5C209.269 125.5 210.5 124.269 210.5 122.75C210.5 121.231 209.269 120 207.75 120C206.231 120 205 121.231 205 122.75C205 124.269 206.231 125.5 207.75 125.5Z" fill="#00CEC9"/>
<path d="M191.75 125.5C193.269 125.5 194.5 124.269 194.5 122.75C194.5 121.231 193.269 120 191.75 120C190.231 120 189 121.231 189 122.75C189 124.269 190.231 125.5 191.75 125.5Z" fill="#00CEC9"/>
<path d="M175.75 125.5C177.269 125.5 178.5 124.269 178.5 122.75C178.5 121.231 177.269 120 175.75 120C174.231 120 173 121.231 173 122.75C173 124.269 174.231 125.5 175.75 125.5Z" fill="#00CEC9"/>
<path d="M159.75 125.5C161.269 125.5 162.5 124.269 162.5 122.75C162.5 121.231 161.269 120 159.75 120C158.231 120 157 121.231 157 122.75C157 124.269 158.231 125.5 159.75 125.5Z" fill="#00CEC9"/>
<path d="M143.75 125.5C145.269 125.5 146.5 124.269 146.5 122.75C146.5 121.231 145.269 120 143.75 120C142.231 120 141 121.231 141 122.75C141 124.269 142.231 125.5 143.75 125.5Z" fill="#00CEC9"/>
<path d="M127.75 125.5C129.269 125.5 130.5 124.269 130.5 122.75C130.5 121.231 129.269 120 127.75 120C126.231 120 125 121.231 125 122.75C125 124.269 126.231 125.5 127.75 125.5Z" fill="#00CEC9"/>
<path d="M412.75 200.5C414.269 200.5 415.5 199.269 415.5 197.75C415.5 196.231 414.269 195 412.75 195C411.231 195 410 196.231 410 197.75C410 199.269 411.231 200.5 412.75 200.5Z" fill="#00CEC9"/>
<path d="M412.75 185.5C414.269 185.5 415.5 184.269 415.5 182.75C415.5 181.231 414.269 180 412.75 180C411.231 180 410 181.231 410 182.75C410 184.269 411.231 185.5 412.75 185.5Z" fill="#00CEC9"/>
<path d="M412.75 170.5C414.269 170.5 415.5 169.269 415.5 167.75C415.5 166.231 414.269 165 412.75 165C411.231 165 410 166.231 410 167.75C410 169.269 411.231 170.5 412.75 170.5Z" fill="#00CEC9"/>
<path d="M412.75 245.5C414.269 245.5 415.5 244.269 415.5 242.75C415.5 241.231 414.269 240 412.75 240C411.231 240 410 241.231 410 242.75C410 244.269 411.231 245.5 412.75 245.5Z" fill="#00CEC9"/>
<path d="M412.75 230.5C414.269 230.5 415.5 229.269 415.5 227.75C415.5 226.231 414.269 225 412.75 225C411.231 225 410 226.231 410 227.75C410 229.269 411.231 230.5 412.75 230.5Z" fill="#00CEC9"/>
<path d="M412.75 215.5C414.269 215.5 415.5 214.269 415.5 212.75C415.5 211.231 414.269 210 412.75 210C411.231 210 410 211.231 410 212.75C410 214.269 411.231 215.5 412.75 215.5Z" fill="#00CEC9"/>
<path d="M412.75 290.5C414.269 290.5 415.5 289.269 415.5 287.75C415.5 286.231 414.269 285 412.75 285C411.231 285 410 286.231 410 287.75C410 289.269 411.231 290.5 412.75 290.5Z" fill="#00CEC9"/>
<path d="M412.75 275.5C414.269 275.5 415.5 274.269 415.5 272.75C415.5 271.231 414.269 270 412.75 270C411.231 270 410 271.231 410 272.75C410 274.269 411.231 275.5 412.75 275.5Z" fill="#00CEC9"/>
<path d="M412.75 260.5C414.269 260.5 415.5 259.269 415.5 257.75C415.5 256.231 414.269 255 412.75 255C411.231 255 410 256.231 410 257.75C410 259.269 411.231 260.5 412.75 260.5Z" fill="#00CEC9"/>
<path d="M83.25 335.5C84.7688 335.5 86 334.269 86 332.75C86 331.231 84.7688 330 83.25 330C81.7312 330 80.5 331.231 80.5 332.75C80.5 334.269 81.7312 335.5 83.25 335.5Z" fill="#00CEC9"/>
<path d="M83.25 320.5C84.7688 320.5 86 319.269 86 317.75C86 316.231 84.7688 315 83.25 315C81.7312 315 80.5 316.231 80.5 317.75C80.5 319.269 81.7312 320.5 83.25 320.5Z" fill="#00CEC9"/>
<path d="M83.25 305.5C84.7688 305.5 86 304.269 86 302.75C86 301.231 84.7688 300 83.25 300C81.7312 300 80.5 301.231 80.5 302.75C80.5 304.269 81.7312 305.5 83.25 305.5Z" fill="#00CEC9"/>
<path d="M83.25 200.5C84.7688 200.5 86 199.269 86 197.75C86 196.231 84.7688 195 83.25 195C81.7312 195 80.5 196.231 80.5 197.75C80.5 199.269 81.7312 200.5 83.25 200.5Z" fill="#00CEC9"/>
<path d="M83.25 185.5C84.7688 185.5 86 184.269 86 182.75C86 181.231 84.7688 180 83.25 180C81.7312 180 80.5 181.231 80.5 182.75C80.5 184.269 81.7312 185.5 83.25 185.5Z" fill="#00CEC9"/>
<path d="M83.25 170.5C84.7688 170.5 86 169.269 86 167.75C86 166.231 84.7688 165 83.25 165C81.7312 165 80.5 166.231 80.5 167.75C80.5 169.269 81.7312 170.5 83.25 170.5Z" fill="#00CEC9"/>
<path d="M83.25 245.5C84.7688 245.5 86 244.269 86 242.75C86 241.231 84.7688 240 83.25 240C81.7312 240 80.5 241.231 80.5 242.75C80.5 244.269 81.7312 245.5 83.25 245.5Z" fill="#00CEC9"/>
<path d="M83.25 230.5C84.7688 230.5 86 229.269 86 227.75C86 226.231 84.7688 225 83.25 225C81.7312 225 80.5 226.231 80.5 227.75C80.5 229.269 81.7312 230.5 83.25 230.5Z" fill="#00CEC9"/>
<path d="M83.25 215.5C84.7688 215.5 86 214.269 86 212.75C86 211.231 84.7688 210 83.25 210C81.7312 210 80.5 211.231 80.5 212.75C80.5 214.269 81.7312 215.5 83.25 215.5Z" fill="#00CEC9"/>
<path d="M83.25 290.5C84.7688 290.5 86 289.269 86 287.75C86 286.231 84.7688 285 83.25 285C81.7312 285 80.5 286.231 80.5 287.75C80.5 289.269 81.7312 290.5 83.25 290.5Z" fill="#00CEC9"/>
<path d="M83.25 275.5C84.7688 275.5 86 274.269 86 272.75C86 271.231 84.7688 270 83.25 270C81.7312 270 80.5 271.231 80.5 272.75C80.5 274.269 81.7312 275.5 83.25 275.5Z" fill="#00CEC9"/>
<path d="M83.25 260.5C84.7688 260.5 86 259.269 86 257.75C86 256.231 84.7688 255 83.25 255C81.7312 255 80.5 256.231 80.5 257.75C80.5 259.269 81.7312 260.5 83.25 260.5Z" fill="#00CEC9"/>
<path d="M199.946 449.569L204.087 430.086L218.89 443.414L199.946 449.569Z" stroke="#F0FF3E" stroke-width="2.5"/>
<path d="M213 14.75C216.728 14.75 219.75 11.7279 219.75 8C219.75 4.27208 216.728 1.25 213 1.25C209.272 1.25 206.25 4.27208 206.25 8C206.25 11.7279 209.272 14.75 213 14.75Z" stroke="#BFE0FF" stroke-width="2.5"/>
<path d="M485.259 281.863L486.129 288.947L486.195 289.487L486.73 289.591L493.736 290.953L487.268 293.969L486.774 294.2L486.84 294.74L487.71 301.824L482.843 296.604L482.471 296.206L481.977 296.436L475.509 299.452L478.969 293.21L479.233 292.734L478.862 292.335L473.994 287.116L481 288.478L481.535 288.582L481.799 288.105L485.259 281.863Z" stroke="#FF7B7B" stroke-width="1.5"/>
<path d="M99.1215 84.0068C99.1215 82.3462 97.7754 81 96.1148 81C94.4542 81 93.108 82.3462 93.108 84.0068V110.052C93.108 111.713 94.4542 113.059 96.1148 113.059C97.7754 113.059 99.1215 111.713 99.1215 110.052V84.0068Z" fill="#00CEC9"/>
<path d="M132.531 100.624C133.705 99.3722 133.705 97.3424 132.531 96.0904C131.357 94.8384 129.453 94.8384 128.279 96.0904L111.27 114.226C110.096 115.478 110.096 117.507 111.27 118.759C112.444 120.011 114.348 120.011 115.522 118.759L132.531 100.624Z" fill="#00CEC9"/>
<path d="M63.4053 96.0905C62.231 94.8385 60.3273 94.8385 59.1531 96.0905C57.9789 97.3425 57.9789 99.3723 59.1531 100.624L76.1618 118.76C77.336 120.011 79.2398 120.011 80.414 118.76C81.5882 117.508 81.5882 115.478 80.414 114.226L63.4053 96.0905Z" fill="#00CEC9"/>
<path d="M80.4142 156.193C81.5884 154.941 81.5884 152.911 80.4142 151.659C79.24 150.407 77.3362 150.407 76.162 151.659L59.1532 169.794C57.979 171.046 57.979 173.076 59.1532 174.328C60.3275 175.58 62.2312 175.58 63.4054 174.328L80.4142 156.193Z" fill="#00CEC9"/>
<path d="M71.8616 138.706C73.6322 138.706 75.0675 137.27 75.0675 135.5C75.0675 133.729 73.6322 132.294 71.8616 132.294H48.2059C46.4353 132.294 45 133.729 45 135.5C45 137.27 46.4353 138.706 48.2059 138.706H71.8616Z" fill="#00CEC9"/>
<path d="M299 353H199V359H299V353Z" fill="white"/>
<path d="M414.87 69.8351C410.915 69.2981 407.029 68.7705 403.099 68.2367C402.978 69.1216 402.862 69.9394 402.756 70.7621C402.529 72.5231 402.277 74.2722 402.095 76.0548C401.971 77.2646 401.947 78.5229 401.879 79.7599C401.868 79.9664 401.919 80.224 401.838 80.3689C401.749 80.529 401.564 80.668 401.374 80.6614C401.236 80.6567 400.984 80.4253 400.846 80.2479C399.518 78.5376 398.223 76.8026 396.882 75.1033C394.036 71.4995 391.171 67.9122 388.31 64.3208C386.618 62.1973 384.931 60.0689 383.213 57.9665C382.712 57.3534 382.113 56.8211 381.503 56.1948C381.673 55.9851 381.784 55.7749 381.958 55.6459C382.416 55.306 382.957 55.0636 383.368 54.6726C385.911 52.2595 388.579 50.0026 391.41 47.9389C392.386 47.2271 393.206 46.3124 394.118 45.5165C395.089 44.67 395.188 44.5324 396.416 46.2179C397.766 48.0712 399.271 49.8234 400.695 51.6306C403.331 54.9761 405.927 58.3515 408.596 61.6715C410.436 63.9612 412.358 66.1872 414.267 68.4201C414.661 68.881 414.94 69.2853 414.87 69.8351ZM383.067 56.4497C384.198 58.3372 399.756 77.7925 400.923 78.7827C401.353 74.9365 401.78 71.1012 402.208 67.2598C405.931 67.7506 409.597 68.234 413.335 68.7265C407.312 61.1545 401.348 53.657 395.306 46.06C391.049 49.3999 386.772 52.5877 383.067 56.4497Z" fill="#FFBFCF"/>
<path d="M389.939 52.9109C390.877 54.2756 391.816 55.6406 392.755 57.0051C391.47 55.7765 389.996 53.7059 389.939 52.9109Z" fill="#FFBFCF"/>
<path d="M398.054 51.6617C397.075 50.5791 395.979 49.5707 395.374 48.2553C395.444 48.2118 395.515 48.1684 395.585 48.125C396.408 49.304 397.231 50.4831 398.054 51.6617Z" fill="#FFBFCF"/>
<path d="M385.544 56.3325C386.486 57.5925 387.427 58.8523 388.463 60.2374C387.283 59.2333 385.692 57.1901 385.544 56.3325Z" fill="#FFBFCF"/>
<path d="M388.241 53.9441C389.063 55.0414 389.883 56.1385 390.704 57.2357C389.635 56.3303 388.679 55.3312 388.021 54.086C388.094 54.0387 388.168 53.9912 388.241 53.9441Z" fill="#FFBFCF"/>
<path d="M392.625 50.0261C393.764 51.244 394.445 52.5029 395.342 53.6025C394.284 52.8201 392.955 51.1065 392.625 50.0261Z" fill="#FFBFCF"/>
<path d="M386.74 54.9949C387.679 56.2832 388.498 57.4066 389.318 58.5299C387.673 56.9854 386.902 55.9372 386.74 54.9949Z" fill="#FFBFCF"/>
<path d="M391.421 51.7231C392.021 52.5527 392.621 53.3825 393.222 54.2127C392.453 53.5034 391.67 52.8092 391.206 51.8834C391.277 51.8298 391.349 51.7761 391.421 51.7231Z" fill="#FFBFCF"/>
<path d="M384.567 57.1255C385.316 58.1457 386.064 59.1661 386.813 60.1862C385.918 59.2764 385.022 58.3707 384.346 57.3008C384.42 57.2423 384.493 57.1842 384.567 57.1255Z" fill="#FFBFCF"/>
<path d="M395.766 51.0419C395.153 50.4148 394.539 49.7882 393.926 49.1606C394.631 49.3197 394.963 49.66 395.766 51.0419Z" fill="#FFBFCF"/>
<path d="M6.40667 280.793C7.24053 280.965 7.883 281.111 8.5305 281.227C9.68485 281.434 9.88226 281.331 10.3916 280.319C10.465 280.173 10.5132 280.015 10.587 279.87C11.004 279.047 11.3767 278.931 12.1437 279.411C12.5622 279.673 12.959 279.969 13.4729 280.323C14.4178 279.576 15.3586 278.833 16.4135 278C16.835 279.004 17.1906 279.852 17.5272 280.655C19 281.146 20.2598 280.186 21.7768 280.282C21.8115 280.82 21.8874 281.329 21.8688 281.835C21.8165 283.286 21.9592 283.502 23.4034 283.852C23.8469 283.96 24.2975 284.056 24.7506 284.107C25.3288 284.172 25.5503 284.489 25.5086 285.016C25.4514 285.745 25.3695 286.471 25.3097 287.2C25.2966 287.358 25.3333 287.52 25.3524 287.742C26.2415 288.294 27.1437 288.853 27.9981 289.384C28.0338 290.154 27.5476 290.518 27.1196 290.887C26.4816 291.438 26.2546 292.038 26.6308 292.831C26.892 293.382 27.0688 293.97 27.3215 294.524C27.7806 295.533 27.7073 295.73 26.6534 296.136C26.4224 296.225 26.1988 296.332 25.9411 296.444C25.5518 297.616 25.5609 298.815 25.8487 300.178C25.0178 300.318 24.2618 300.479 23.4968 300.563C23.0271 300.615 22.7262 300.779 22.5605 301.22C22.249 302.049 21.91 302.868 21.5242 303.837C21.0801 303.719 20.6562 303.639 20.2573 303.495C19.1698 303.1 18.9497 303.162 18.354 304.12C18.1596 304.433 17.9561 304.741 17.7773 305.061C17.2951 305.924 16.837 306.023 16.0227 305.405C15.4691 304.986 14.9311 304.547 14.2821 304.034C13.606 304.535 12.9545 304.959 12.3753 305.461C11.4269 306.284 10.9974 306.185 10.698 305.02C10.5689 304.519 10.4057 304.026 10.2223 303.408C9.08055 303.703 8.05279 303.969 6.99338 304.242C6.28912 303.584 6.08066 302.705 5.93247 301.832C5.82347 301.189 5.51554 300.917 4.87005 300.903C4.45613 300.894 4.04423 300.815 3.63081 300.77C2.73215 300.673 2.57392 300.506 2.64726 299.609C2.68694 299.125 2.79896 298.646 2.8718 298.163C3.02802 297.123 3.0225 297.117 2.03794 296.717C0.862494 296.239 0.797192 296.185 0.205954 295.183C0.853452 294.171 1.50547 293.15 2.10876 292.207C1.62452 291.106 0.244633 290.98 0 289.782C1.07397 289.052 2.14594 288.323 3.30078 287.538C2.73316 286.55 2.23334 285.682 1.66069 284.686C3.02852 284.444 4.26676 284.224 5.58185 283.991C5.84557 282.965 6.10678 281.953 6.40667 280.793ZM20.7159 281.191C20.0885 281.301 19.65 281.375 19.2135 281.457C18.8066 281.532 18.4047 281.65 17.9948 281.691C16.847 281.806 16.518 281.595 16.1191 280.564C16.0237 280.317 15.9283 280.069 15.773 279.665C15.3576 280.061 15.0522 280.377 14.7192 280.663C13.8436 281.416 13.2715 281.453 12.2658 280.866C12.0297 280.729 11.7745 280.623 11.4686 280.473C11.0828 281.143 10.7427 281.734 10.3585 282.402C9.37441 282.25 8.40442 282.101 7.32743 281.935C7.01699 283.013 6.71962 284.046 6.43781 285.028C5.32717 285.155 4.35266 285.268 3.24402 285.395C3.73278 286.283 4.15474 287.049 4.63848 287.927C3.54441 288.701 2.52519 289.422 1.55118 290.111C1.59438 290.276 1.59137 290.329 1.61598 290.349C1.96359 290.636 2.31321 290.921 2.66635 291.202C3.40828 291.792 3.49669 292.172 3.00491 292.957C2.53122 293.712 2.02186 294.446 1.44117 295.321C2.42674 295.827 3.31987 296.285 4.23461 296.755C4.08793 297.768 3.95079 298.717 3.80261 299.742C4.56213 299.885 5.2036 300.016 5.84858 300.127C6.55787 300.251 6.93361 300.59 6.9321 301.358C6.9311 301.859 7.126 302.361 7.25158 302.949C7.74336 302.859 8.10553 302.806 8.46068 302.724C8.86505 302.631 9.25837 302.489 9.66475 302.406C10.6533 302.204 10.9045 302.324 11.3531 303.189C11.551 303.571 11.7238 303.966 11.9503 304.443C12.5813 304.026 13.0781 303.663 13.609 303.356C14.3906 302.904 14.5931 302.957 15.3526 303.53C15.8293 303.889 16.3442 304.2 16.8897 304.564C17.285 303.88 17.5985 303.311 17.9376 302.757C18.4047 301.993 18.5544 301.962 19.4445 302.212C19.9474 302.353 20.4688 302.433 21.0877 302.562C21.2248 301.971 21.3509 301.51 21.4373 301.041C21.6623 299.822 21.8989 299.622 23.1472 299.588C23.5892 299.577 24.0298 299.516 24.5954 299.467C24.6125 298.643 24.6376 297.921 24.6396 297.199C24.6441 295.785 24.6396 295.787 26.0346 295.346C26.0994 295.326 26.1375 295.227 26.2636 295.069C26.0984 294.603 25.922 294.071 25.7221 293.547C25.2529 292.321 24.9274 291.129 26.337 290.233C26.4294 290.175 26.4671 290.035 26.6097 289.803C25.7598 289.31 24.9224 288.824 24.1001 288.347C24.1589 287.239 24.2151 286.163 24.2719 285.096C23.3838 284.847 22.6624 284.662 21.9532 284.44C20.9475 284.125 20.7616 283.877 20.734 282.889C20.7179 282.37 20.7215 281.851 20.7159 281.191Z" fill="#C7FF9B"/>
<path d="M138 168H239V306H138V168Z" fill="#F1F1F1"/>
<mask id="mask0_74_1207" style="mask-type:luminance" maskUnits="userSpaceOnUse" x="138" y="168" width="101" height="138">
<path d="M138 168H239V306H138V168Z" fill="white"/>
</mask>
<g mask="url(#mask0_74_1207)">
<path d="M140 306V168H136V306H140Z" fill="#909090"/>
</g>
<path d="M145 199.5H231" stroke="#D9D9D9"/>
<path d="M145 189.5H221" stroke="#D9D9D9"/>
<path d="M145 219.5H231" stroke="#D9D9D9"/>
<path d="M145 209.5H221" stroke="#D9D9D9"/>
<path d="M145 239.5H231" stroke="#D9D9D9"/>
<path d="M145 229.5H221" stroke="#D9D9D9"/>
<path d="M145 179.5H231" stroke="#D9D9D9"/>
<path d="M256 168H357V306H256V168Z" fill="#F1F1F1"/>
<mask id="mask1_74_1207" style="mask-type:luminance" maskUnits="userSpaceOnUse" x="256" y="168" width="101" height="138">
<path d="M256 168H357V306H256V168Z" fill="white"/>
</mask>
<g mask="url(#mask1_74_1207)">
<path d="M258 306V168H254V306H258Z" fill="#5038ED"/>
</g>
<path d="M263 207.5H349" stroke="#D9D9D9"/>
<path d="M263 193.5H339" stroke="#D9D9D9"/>
<path d="M263 235.5H349" stroke="#D9D9D9"/>
<path d="M263 221.5H339" stroke="#D9D9D9"/>
<path d="M263 263.5H349" stroke="#D9D9D9"/>
<path d="M263 249.5H339" stroke="#D9D9D9"/>
<path d="M263 179.5H349" stroke="#D9D9D9"/>
<mask id="mask2_74_1207" style="mask-type:luminance" maskUnits="userSpaceOnUse" x="328" y="195" width="50" height="50">
<path d="M363.476 195L328 208.618L341.618 244.094L377.094 230.476L363.476 195Z" fill="white"/>
</mask>
<g mask="url(#mask2_74_1207)">
<path d="M368.56 213.91L368.421 213.546C367.589 211.378 365.149 210.292 362.982 211.124C362.492 211.312 362.058 211.583 361.689 211.913C360.634 210.266 358.53 209.526 356.634 210.253C356.12 210.451 355.667 210.74 355.285 211.094C354.176 209.626 352.116 208.981 350.3 209.678C349.812 209.866 349.377 210.141 349.005 210.48L347.193 205.76C346.361 203.593 343.921 202.506 341.754 203.338C339.586 204.17 338.5 206.61 339.332 208.778L343.775 220.353C342.75 219.738 341.629 219.29 340.517 219.264C339.277 219.235 338.17 219.72 337.315 220.668C335.743 222.411 335.856 225.114 337.568 226.694L346.243 234.7C346.486 234.919 352.239 240.017 358.229 237.717L365.217 235.035C370.727 232.92 373.48 226.694 371.353 221.154L368.565 213.908L368.56 213.91ZM364.211 232.415L357.224 235.097C352.909 236.753 348.293 232.765 348.125 232.618L339.471 224.631C338.874 224.08 338.843 223.165 339.399 222.548C339.706 222.208 340.03 222.061 340.45 222.07C342.124 222.108 344.641 224.421 345.834 225.869L346.742 226.975L348.687 225.315L341.952 207.772C341.675 207.049 342.037 206.236 342.76 205.959C343.482 205.681 344.295 206.043 344.573 206.766L350.373 221.877L350.397 221.868L352.994 220.871L353.017 220.862L350.469 214.223C350.188 213.492 350.587 212.575 351.306 212.299C352.051 212.013 352.939 212.374 353.207 213.072L354.213 215.693L355.956 220.235L358.577 219.229L356.833 214.687C356.556 213.964 356.918 213.151 357.64 212.874C358.363 212.596 359.176 212.958 359.453 213.681L360.56 216.563L361.666 219.446L364.287 218.44L363.18 215.558C362.903 214.835 363.265 214.022 363.988 213.744C364.71 213.467 365.523 213.829 365.801 214.552L366.52 216.426L366.526 216.423L368.733 222.16C370.305 226.254 368.276 230.854 364.211 232.415Z" fill="#FBC02D"/>
</g>
<path d="M348.693 285.117C348.693 280.997 346.52 277.259 342.883 275.118C342.51 274.899 342.031 275.024 341.813 275.395C341.595 275.767 341.719 276.246 342.091 276.465C345.246 278.321 347.13 281.556 347.13 285.117C347.13 291.034 342.834 295.329 336.917 295.329C335.594 295.329 334.31 295.081 333.101 294.593C332.702 294.431 332.245 294.624 332.084 295.024C331.923 295.424 332.115 295.881 332.515 296.042C333.912 296.606 335.393 296.892 336.917 296.892C336.922 296.892 336.927 296.892 336.931 296.892V298.431H334.662C334.212 298.431 333.846 298.78 333.846 299.21C333.846 299.641 334.212 299.99 334.662 299.99H340.836C341.287 299.99 341.652 299.641 341.652 299.21C341.652 298.78 341.287 298.431 340.836 298.431H338.483V296.8C344.484 296.103 348.693 291.407 348.693 285.119V285.117ZM345.516 285.188C345.516 280.435 341.664 276.559 336.912 276.559C332.159 276.559 328.307 280.435 328.307 285.188C328.307 289.94 332.159 293.767 336.912 293.767C341.665 293.767 345.516 289.94 345.516 285.188ZM329.87 285.188C329.87 281.305 333.029 278.122 336.912 278.122C340.795 278.122 343.952 281.305 343.952 285.188C343.952 289.07 340.794 292.205 336.912 292.205C333.028 292.205 329.87 289.07 329.87 285.188Z" fill="#9181F4"/>
</svg>
